<svg width="44" height="44" viewBox="0 0 44 44" fill="none" xmlns="http://www.w3.org/2000/svg">
<path d="M22 4C12.05 4 4 12.05 4 22C4 26.18 5.46 30.05 7.94 33.05L5.5 38.5C5.22 39.05 5.35 39.71 5.79 40.12C6.12 40.42 6.58 40.5 6.99 40.35L13.5 37.8C16.8 39.25 20.5 40 24.5 39.8C34.95 39.2 39 29.95 39 22C39 12.05 31.95 4 22 4Z" fill="#48C5A8"/>
<path d="M22 4C12.05 4 4 12.05 4 22C4 26.18 5.46 30.05 7.94 33.05L5.5 38.5C5.22 39.05 5.35 39.71 5.79 40.12C6.12 40.42 6.58 40.5 6.99 40.35L13.5 37.8C16.8 39.25 20.5 40 24.5 39.8C34.95 39.2 39 29.95 39 22C39 12.05 31.95 4 22 4Z" stroke="white" stroke-width="0.5" stroke-opacity="0.2"/>
<circle cx="16" cy="20" r="2" fill="white"/>
<circle cx="22" cy="20" r="2" fill="white"/>
<circle cx="28" cy="20" r="2" fill="white"/>
<path d="M15 28C17 30 20 31 22 31C24 31 27 30 29 28" stroke="white" stroke-width="2" stroke-linecap="round"/>
</svg>
